<svg width="86" height="16" viewBox="0 0 86 16" fill="none" xmlns="http://www.w3.org/2000/svg">
<path fill-rule="evenodd" clip-rule="evenodd" d="M8.78502 0.85999C8.28914 0.624795 7.71387 0.624795 7.21799 0.859989C6.8747 1.02281 6.63118 1.33101 6.41541 1.67934C6.19847 2.02957 5.96045 2.50562 5.66405 3.09844L5.66404 3.09846L5.65243 3.12168L5.41354 3.59947C5.21029 4.00597 5.15118 4.1125 5.07698 4.19017C5.00044 4.27028 4.90866 4.33428 4.80703 4.37841C4.7085 4.42118 4.58811 4.43982 4.13641 4.49001L3.91954 4.51411L3.89352 4.517H3.89351C3.18145 4.59611 2.61262 4.65931 2.18197 4.74691C1.75725 4.8333 1.36142 4.96118 1.08434 5.24388C0.687908 5.64835 0.501275 6.2137 0.578988 6.7747C0.633303 7.16678 0.875191 7.50522 1.16501 7.82751C1.45887 8.15424 1.87827 8.54375 2.40329 9.03126L2.42247 9.04908L2.65142 9.26165C3.04912 9.63094 3.15109 9.7354 3.20822 9.84664C3.2672 9.96154 3.29862 10.0885 3.29997 10.2177C3.30129 10.3425 3.25893 10.485 3.0768 11.0041L3.0682 11.0287L3.06818 11.0287C2.79941 11.7947 2.58655 12.4014 2.4657 12.8733C2.3483 13.3318 2.28252 13.782 2.43558 14.1718C2.65095 14.7204 3.11755 15.1316 3.68888 15.2762C4.09375 15.3787 4.52824 15.2593 4.96436 15.0873C5.41207 14.9107 5.97899 14.6272 6.69378 14.2698L6.71719 14.2581L7.27298 13.9802C7.64771 13.7928 7.75004 13.7467 7.84825 13.7283C7.94951 13.7093 8.0535 13.7093 8.15477 13.7283C8.25297 13.7467 8.3553 13.7928 8.73004 13.9802L9.28583 14.2581L9.3093 14.2698C10.0241 14.6272 10.591 14.9107 11.0386 15.0873C11.4747 15.2593 11.9093 15.3787 12.3141 15.2762C12.8855 15.1316 13.3521 14.7204 13.5674 14.1718C13.7205 13.782 13.6547 13.3318 13.5373 12.8733C13.4164 12.4014 13.2036 11.7947 12.9348 11.0287V11.0286L12.9262 11.0041C12.7441 10.485 12.7017 10.3425 12.703 10.2177C12.7044 10.0885 12.7358 9.96154 12.7948 9.84664C12.8519 9.7354 12.9539 9.63094 13.3516 9.26165L13.5805 9.04908L13.5998 9.03119C14.1248 8.54368 14.5442 8.15424 14.838 7.82751C15.1278 7.50522 15.3697 7.16678 15.424 6.7747C15.5018 6.2137 15.3151 5.64835 14.9187 5.24388C14.6416 4.96118 14.2458 4.8333 13.821 4.74691C13.3904 4.65931 12.8216 4.59611 12.1095 4.517L12.0835 4.51411L11.8666 4.49001C11.4149 4.43982 11.2945 4.42118 11.196 4.37841C11.0944 4.33428 11.0026 4.27028 10.9261 4.19017C10.8519 4.1125 10.7928 4.00597 10.5895 3.59946L10.3506 3.12168L10.339 3.09845C10.0425 2.50562 9.80458 2.02957 9.58762 1.67934C9.37186 1.33101 9.12838 1.02281 8.78502 0.85999Z" fill="#FFC250"/>
<path fill-rule="evenodd" clip-rule="evenodd" d="M26.4247 0.85999C25.9288 0.624795 25.3535 0.624795 24.8576 0.859989C24.5143 1.02281 24.2708 1.33101 24.0551 1.67934C23.8381 2.02957 23.6001 2.50562 23.3037 3.09844L23.3037 3.09846L23.2921 3.12168L23.0532 3.59947C22.8499 4.00597 22.7908 4.1125 22.7166 4.19017C22.6401 4.27028 22.5483 4.33428 22.4467 4.37841C22.3481 4.42118 22.2278 4.43982 21.7761 4.49001L21.5592 4.51411L21.5332 4.517H21.5332C20.8211 4.59611 20.2523 4.65931 19.8216 4.74691C19.3969 4.8333 19.0011 4.96118 18.724 5.24388C18.3276 5.64835 18.1409 6.2137 18.2186 6.7747C18.273 7.16678 18.5148 7.50522 18.8047 7.82751C19.0985 8.15424 19.5179 8.54375 20.0429 9.03126L20.0621 9.04908L20.2911 9.26165C20.6888 9.63094 20.7907 9.7354 20.8479 9.84664C20.9068 9.96154 20.9383 10.0885 20.9396 10.2177C20.9409 10.3425 20.8986 10.485 20.7165 11.0041L20.7078 11.0287L20.7078 11.0287C20.4391 11.7947 20.2262 12.4014 20.1054 12.8733C19.9879 13.3318 19.9222 13.782 20.0752 14.1718C20.2906 14.7204 20.7572 15.1316 21.3285 15.2762C21.7334 15.3787 22.1679 15.2593 22.604 15.0873C23.0517 14.9107 23.6186 14.6272 24.3334 14.2698L24.3568 14.2581L24.9126 13.9802C25.2874 13.7928 25.3897 13.7467 25.4879 13.7283C25.5892 13.7093 25.6932 13.7093 25.7944 13.7283C25.8926 13.7467 25.9949 13.7928 26.3697 13.9802L26.9255 14.2581L26.9489 14.2698C27.6637 14.6272 28.2306 14.9107 28.6783 15.0873C29.1144 15.2593 29.5489 15.3787 29.9538 15.2762C30.5251 15.1316 30.9917 14.7204 31.2071 14.1718C31.3602 13.782 31.2943 13.3318 31.177 12.8733C31.0561 12.4014 30.8433 11.7947 30.5744 11.0287V11.0286L30.5659 11.0041C30.3837 10.485 30.3414 10.3425 30.3427 10.2177C30.3441 10.0885 30.3754 9.96154 30.4345 9.84664C30.4916 9.7354 30.5935 9.63094 30.9913 9.26165L31.2202 9.04908L31.2394 9.03119C31.7644 8.54368 32.1838 8.15424 32.4776 7.82751C32.7675 7.50522 33.0094 7.16678 33.0637 6.7747C33.1414 6.2137 32.9548 5.64835 32.5583 5.24388C32.2812 4.96118 31.8854 4.8333 31.4607 4.74691C31.03 4.65931 30.4612 4.59611 29.7492 4.517L29.7231 4.51411L29.5063 4.49001C29.0545 4.43982 28.9341 4.42118 28.8357 4.37841C28.734 4.33428 28.6422 4.27028 28.5657 4.19017C28.4915 4.1125 28.4324 4.00597 28.2291 3.59946L27.9902 3.12168L27.9786 3.09845C27.6822 2.50562 27.4442 2.02957 27.2273 1.67934C27.0115 1.33101 26.768 1.02281 26.4247 0.85999Z" fill="#FFC250"/>
<path fill-rule="evenodd" clip-rule="evenodd" d="M44.0643 0.85999C43.5684 0.624795 42.9932 0.624795 42.4973 0.859989C42.154 1.02281 41.9105 1.33101 41.6947 1.67934C41.4778 2.02957 41.2397 2.50562 40.9433 3.09844L40.9433 3.09846L40.9317 3.12168L40.6928 3.59947C40.4896 4.00597 40.4305 4.1125 40.3563 4.19017C40.2797 4.27028 40.188 4.33428 40.0863 4.37841C39.9878 4.42118 39.8674 4.43982 39.4157 4.49001L39.1988 4.51411L39.1728 4.517H39.1728C38.4607 4.59611 37.8919 4.65931 37.4613 4.74691C37.0365 4.8333 36.6407 4.96118 36.3636 5.24388C35.9672 5.64835 35.7806 6.2137 35.8583 6.7747C35.9126 7.16678 36.1545 7.50522 36.4443 7.82751C36.7382 8.15424 37.1576 8.54375 37.6826 9.03126L37.7018 9.04908L37.9307 9.26165C38.3284 9.63094 38.4304 9.7354 38.4875 9.84664C38.5465 9.96154 38.5779 10.0885 38.5793 10.2177C38.5806 10.3425 38.5382 10.485 38.3561 11.0041L38.3475 11.0287L38.3475 11.0287C38.0787 11.7947 37.8659 12.4014 37.745 12.8733C37.6276 13.3318 37.5618 13.782 37.7149 14.1718C37.9302 14.7204 38.3968 15.1316 38.9682 15.2762C39.373 15.3787 39.8075 15.2593 40.2437 15.0873C40.6914 14.9107 41.2583 14.6272 41.9731 14.2698L41.9965 14.2581L42.5523 13.9802C42.927 13.7928 43.0293 13.7467 43.1275 13.7283C43.2288 13.7093 43.3328 13.7093 43.4341 13.7283C43.5323 13.7467 43.6346 13.7928 44.0093 13.9802L44.5651 14.2581L44.5886 14.2698C45.3034 14.6272 45.8703 14.9107 46.3179 15.0873C46.754 15.2593 47.1885 15.3787 47.5934 15.2762C48.1648 15.1316 48.6314 14.7204 48.8467 14.1718C48.9998 13.782 48.934 13.3318 48.8166 12.8733C48.6957 12.4014 48.4829 11.7947 48.2141 11.0287V11.0286L48.2055 11.0041C48.0234 10.485 47.981 10.3425 47.9823 10.2177C47.9837 10.0885 48.0151 9.96154 48.0741 9.84664C48.1312 9.7354 48.2332 9.63094 48.6309 9.26165L48.8598 9.04908L48.8791 9.03119C49.4041 8.54368 49.8235 8.15424 50.1173 7.82751C50.4071 7.50522 50.649 7.16678 50.7033 6.7747C50.7811 6.2137 50.5944 5.64835 50.1979 5.24388C49.9209 4.96118 49.5251 4.8333 49.1003 4.74691C48.6697 4.65931 48.1009 4.59611 47.3888 4.517L47.3628 4.51411L47.1459 4.49001C46.6942 4.43982 46.5738 4.42118 46.4753 4.37841C46.3736 4.33428 46.2819 4.27028 46.2054 4.19017C46.1312 4.1125 46.0721 4.00597 45.8688 3.59946L45.6299 3.12168L45.6183 3.09845C45.3218 2.50562 45.0839 2.02957 44.8669 1.67934C44.6512 1.33101 44.4077 1.02281 44.0643 0.85999Z" fill="#FFC250"/>
<path fill-rule="evenodd" clip-rule="evenodd" d="M61.704 0.85999C61.2081 0.624795 60.6328 0.624795 60.1369 0.859989C59.7936 1.02281 59.5501 1.33101 59.3344 1.67934C59.1174 2.02957 58.8794 2.50562 58.583 3.09844L58.583 3.09846L58.5714 3.12168L58.3325 3.59947C58.1292 4.00597 58.0701 4.1125 57.9959 4.19017C57.9194 4.27028 57.8276 4.33428 57.726 4.37841C57.6274 4.42118 57.5071 4.43982 57.0554 4.49001L56.8385 4.51411L56.8125 4.517H56.8125C56.1004 4.59611 55.5316 4.65931 55.1009 4.74691C54.6762 4.8333 54.2804 4.96118 54.0033 5.24388C53.6069 5.64835 53.4202 6.2137 53.4979 6.7747C53.5522 7.16678 53.7941 7.50522 54.084 7.82751C54.3778 8.15424 54.7972 8.54375 55.3222 9.03126L55.3414 9.04908L55.5704 9.26165C55.9681 9.63094 56.07 9.7354 56.1272 9.84664C56.1861 9.96154 56.2176 10.0885 56.2189 10.2177C56.2202 10.3425 56.1779 10.485 55.9957 11.0041L55.9871 11.0287L55.9871 11.0287C55.7184 11.7947 55.5055 12.4014 55.3846 12.8733C55.2672 13.3318 55.2015 13.782 55.3545 14.1718C55.5699 14.7204 56.0365 15.1316 56.6078 15.2762C57.0127 15.3787 57.4472 15.2593 57.8833 15.0873C58.331 14.9107 58.8979 14.6272 59.6127 14.2698L59.6361 14.2581L60.1919 13.9802C60.5667 13.7928 60.669 13.7467 60.7672 13.7283C60.8685 13.7093 60.9724 13.7093 61.0737 13.7283C61.1719 13.7467 61.2742 13.7928 61.649 13.9802L62.2048 14.2581L62.2282 14.2698C62.943 14.6272 63.5099 14.9107 63.9576 15.0873C64.3937 15.2593 64.8282 15.3787 65.2331 15.2762C65.8044 15.1316 66.271 14.7204 66.4864 14.1718C66.6394 13.782 66.5736 13.3318 66.4563 12.8733C66.3354 12.4014 66.1226 11.7947 65.8537 11.0287V11.0286L65.8452 11.0041C65.663 10.485 65.6207 10.3425 65.622 10.2177C65.6234 10.0885 65.6547 9.96154 65.7138 9.84664C65.7709 9.7354 65.8728 9.63094 66.2706 9.26165L66.4995 9.04908L66.5187 9.03119C67.0437 8.54368 67.4631 8.15424 67.7569 7.82751C68.0468 7.50522 68.2887 7.16678 68.343 6.7747C68.4207 6.2137 68.2341 5.64835 67.8376 5.24388C67.5605 4.96118 67.1647 4.8333 66.74 4.74691C66.3093 4.65931 65.7405 4.59611 65.0285 4.517L65.0024 4.51411L64.7856 4.49001C64.3338 4.43982 64.2134 4.42118 64.115 4.37841C64.0133 4.33428 63.9215 4.27028 63.845 4.19017C63.7708 4.1125 63.7117 4.00597 63.5084 3.59946L63.2695 3.12168L63.2579 3.09845C62.9615 2.50562 62.7235 2.02957 62.5066 1.67934C62.2908 1.33101 62.0473 1.02281 61.704 0.85999Z" fill="#FFC250"/>
<path fill-rule="evenodd" clip-rule="evenodd" d="M79.3436 0.85999C78.8477 0.624795 78.2725 0.624795 77.7766 0.859989C77.4333 1.02281 77.1898 1.33101 76.974 1.67934C76.7571 2.02957 76.519 2.50562 76.2226 3.09844L76.2226 3.09846L76.211 3.12168L75.9721 3.59947C75.7689 4.00597 75.7098 4.1125 75.6356 4.19017C75.559 4.27028 75.4673 4.33428 75.3656 4.37841C75.2671 4.42118 75.1467 4.43982 74.695 4.49001L74.4781 4.51411L74.4521 4.517H74.4521C73.74 4.59611 73.1712 4.65931 72.7406 4.74691C72.3158 4.8333 71.92 4.96118 71.6429 5.24388C71.2465 5.64835 71.0599 6.2137 71.1376 6.7747C71.1919 7.16678 71.4338 7.50522 71.7236 7.82751C72.0175 8.15424 72.4369 8.54375 72.9619 9.03126L72.9811 9.04908L73.21 9.26165C73.6077 9.63094 73.7097 9.7354 73.7668 9.84664C73.8258 9.96154 73.8572 10.0885 73.8586 10.2177C73.8599 10.3425 73.8175 10.485 73.6354 11.0041L73.6268 11.0287L73.6268 11.0287C73.358 11.7947 73.1451 12.4014 73.0243 12.8733C72.9069 13.3318 72.8411 13.782 72.9942 14.1718C73.2095 14.7204 73.6761 15.1316 74.2475 15.2762C74.6523 15.3787 75.0868 15.2593 75.523 15.0873C75.9707 14.9107 76.5376 14.6272 77.2524 14.2698L77.2758 14.2581L77.8316 13.9802C78.2063 13.7928 78.3086 13.7467 78.4068 13.7283C78.5081 13.7093 78.6121 13.7093 78.7134 13.7283C78.8116 13.7467 78.9139 13.7928 79.2886 13.9802L79.8444 14.2581L79.8679 14.2698C80.5827 14.6272 81.1496 14.9107 81.5972 15.0873C82.0333 15.2593 82.4678 15.3787 82.8727 15.2762C83.4441 15.1316 83.9107 14.7204 84.126 14.1718C84.2791 13.782 84.2133 13.3318 84.0959 12.8733C83.975 12.4014 83.7622 11.7947 83.4934 11.0287V11.0286L83.4848 11.0041C83.3027 10.485 83.2603 10.3425 83.2616 10.2177C83.263 10.0885 83.2944 9.96154 83.3534 9.84664C83.4105 9.7354 83.5125 9.63094 83.9102 9.26165L84.1391 9.04908L84.1584 9.03119C84.6834 8.54368 85.1028 8.15424 85.3966 7.82751C85.6864 7.50522 85.9283 7.16678 85.9826 6.7747C86.0604 6.2137 85.8737 5.64835 85.4772 5.24388C85.2002 4.96118 84.8044 4.8333 84.3796 4.74691C83.949 4.65931 83.3802 4.59611 82.6681 4.517L82.642 4.51411L82.4252 4.49001C81.9735 4.43982 81.8531 4.42118 81.7546 4.37841C81.6529 4.33428 81.5612 4.27028 81.4847 4.19017C81.4105 4.1125 81.3513 4.00597 81.1481 3.59946L80.9092 3.12168L80.8976 3.09845C80.6011 2.50562 80.3632 2.02957 80.1462 1.67934C79.9305 1.33101 79.687 1.02281 79.3436 0.85999Z" fill="#FFC250"/>
</svg>
